<?xml version="1.0" standalone="no"?>
<!DOCTYPE svg PUBLIC "-//W3C//DTD SVG 20010904//EN"
 "http://www.w3.org/TR/2001/REC-SVG-20010904/DTD/svg10.dtd">
<svg version="1.0" xmlns="http://www.w3.org/2000/svg"
 width="400.000000pt" height="400.000000pt" viewBox="0 0 400.000000 400.000000"
 preserveAspectRatio="xMidYMid meet">
<metadata>
Created by potrace 1.11, written by Peter Selinger 2001-2013
</metadata>
<g transform="translate(0.000000,400.000000) scale(0.100000,-0.100000)"
fill="#000000" stroke="none">
<path d="M0 2000 l0 -2000 985 0 985 0 0 28 c0 45 -29 212 -50 290 -41 148
-74 187 -247 290 -66 39 -133 86 -150 105 -29 33 -30 39 -36 153 l-5 119 -149
150 c-90 91 -158 170 -175 200 -14 28 -43 107 -64 177 l-38 128 -53 -7 c-47
-5 -57 -3 -79 18 -14 13 -43 61 -64 106 -21 45 -58 110 -83 145 -24 35 -57 87
-72 117 -24 49 -54 160 -55 205 0 33 34 -23 54 -89 42 -137 118 -255 209 -321
68 -51 81 -54 65 -19 -9 20 -9 34 0 59 17 47 16 55 -27 147 -21 46 -44 109
-51 139 -8 34 -25 68 -43 90 l-31 35 35 3 c45 5 65 24 105 104 43 86 80 127
146 164 l53 29 835 0 835 0 53 -29 c72 -40 93 -64 141 -154 47 -91 64 -109
109 -114 l34 -3 -30 -38 c-17 -20 -36 -61 -42 -90 -7 -28 -32 -94 -56 -145
l-43 -93 40 32 c22 17 51 46 66 65 14 19 32 34 40 34 24 0 106 47 146 84 20
19 37 29 37 22 0 -45 -63 -174 -121 -247 -15 -20 -49 -79 -75 -133 -53 -112
-73 -129 -140 -124 l-47 3 -42 -135 c-23 -74 -50 -153 -60 -175 -11 -24 -81
-103 -173 -195 l-154 -154 -6 -124 -5 -123 -40 -34 c-22 -19 -86 -62 -141 -94
-150 -89 -206 -149 -245 -263 -22 -65 -47 -185 -56 -275 l-7 -63 991 0 991 0
0 2000 0 2000 -2000 0 -2000 0 0 -2000z m2294 1057 c69 -111 148 -298 171
-406 l7 -33 -63 7 c-95 10 -150 24 -187 46 -19 10 -37 17 -42 14 -13 -8 -25
19 -59 133 -34 116 -50 222 -32 222 6 0 11 -6 11 -13 0 -22 66 -151 105 -206
32 -44 150 -140 160 -129 2 2 -12 40 -31 86 -19 46 -45 120 -58 165 -23 80
-41 187 -32 187 2 0 25 -33 50 -73z m-914 -162 c-11 -26 -47 -98 -81 -161 -34
-63 -59 -117 -57 -119 7 -8 144 62 210 106 35 23 102 80 149 126 l87 84 7 -38
c11 -60 43 -125 82 -165 l36 -37 -34 -20 c-44 -27 -101 -38 -265 -52 -77 -6
-141 -13 -143 -15 -2 -2 88 -4 200 -4 169 0 208 3 227 16 12 8 22 21 22 29 0
24 15 24 66 0 79 -39 83 -37 69 43 -7 37 -16 110 -19 162 l-6 95 37 -69 c43
-79 116 -164 165 -190 18 -10 42 -32 53 -50 l20 -31 290 -5 c180 -3 -14 -6
-510 -8 -447 -1 -814 -6 -832 -11 l-32 -9 20 51 c28 70 97 173 156 229 43 42
94 87 100 88 1 0 -6 -20 -17 -45z m-350 -379 c0 -2 -8 -10 -17 -17 -16 -13
-17 -12 -4 4 13 16 21 21 21 13z m1961 -13 c13 -16 12 -17 -3 -4 -17 13 -22
21 -14 21 2 0 10 -8 17 -17z m-2065 -152 c-14 -27 -32 -51 -41 -55 -66 -25
-77 23 -12 52 23 10 48 26 56 35 23 29 22 19 -3 -32z m2207 -6 c61 -25 44 -72
-18 -49 -9 4 -28 30 -42 58 l-25 51 23 -22 c14 -12 41 -29 62 -38z"/>
<path d="M1167 2539 c-86 -20 -150 -79 -188 -175 -20 -50 -24 -77 -24 -174 0
-64 6 -134 13 -157 26 -87 116 -174 219 -213 47 -18 82 -22 189 -23 129 -1
132 -1 197 31 81 40 126 89 196 216 65 117 98 211 111 311 13 102 -1 136 -61
159 -81 29 -556 48 -652 25z"/>
<path d="M2350 2539 c-217 -15 -249 -41 -229 -186 6 -43 21 -108 34 -146 29
-86 118 -246 166 -301 79 -90 190 -123 367 -108 116 10 187 38 257 103 56 52
79 94 95 177 28 140 -6 304 -79 385 -64 72 -100 81 -306 83 -99 1 -236 -2
-305 -7z"/>
<path d="M1971 2526 c-8 -9 -11 -48 -9 -111 2 -80 6 -100 21 -109 12 -8 22 -8
35 0 14 9 18 28 20 100 4 113 -1 134 -32 134 -13 0 -29 -6 -35 -14z"/>
<path d="M1795 2000 c-48 -78 -85 -143 -82 -146 8 -9 56 37 86 84 31 49 94
192 87 199 -2 2 -43 -60 -91 -137z"/>
<path d="M2110 2136 c0 -16 75 -176 97 -208 25 -37 83 -87 83 -73 0 9 -171
285 -176 285 -2 0 -4 -2 -4 -4z"/>
</g>
</svg>
